# xmcd
#
# Track frame offsets:
#	150
#	17265
#	34262
#	63197
#
# Disc length: 1173 seconds
#
# Revision: 5
# Processed by: cddbd v1.5.2PL0 Copyright (c) Steve Scherf et al.
# Submitted via: EasyCDDAExtractor 16.0.6.1
#
DISCID=24049304
DTITLE=Universo - The V [CD-Maxi)
DYEAR=1995
DGENRE=Techno
TTITLE0=The V (The V Smart Mix - Radio Edit)
TTITLE1=The V (Work In Progress Mix - Radio Edit)
TTITLE2=The V (The V Smart Mix)
TTITLE3=The V (Work In Progress Mix)
EXTD=YEAR: 1999
EXTT0=
EXTT1=
EXTT2=
EXTT3=
PLAYORDER=
